<svg version="1" xmlns="http://www.w3.org/2000/svg" width="501.333" height="501.333" viewBox="0 0 376.000000 376.000000"><path d="M180 4.1c-2.5 4.9-6 17.9-6 22.4 0 3-.3 3.3-3.7 3.9-8.5 1.4-8.5 1.3-12.6-7.7-2.1-4.6-5.7-10.4-8-13l-4.2-4.6-5.5 1.5c-3 .8-5.8 1.8-6.2 2.2-1.6 1.6-3 12.9-2.3 19.2.3 3.6.7 7.5.8 8.8.2 1.9-.7 2.7-5.3 4.7l-5.5 2.4-2-2.7c-3.6-5-11.6-13-15.6-15.8l-4.1-2.8-5.4 2.9-5.4 2.9v5.7c0 5.5 2.8 16.7 5.6 22.1 1.3 2.5 1.2 2.7-3.3 6.1l-4.7 3.5L82 62c-4.7-4-14.6-9.4-19.2-10.5-2.3-.6-3.4 0-7.2 3.9L51 59.9l2.2 5.8c2.2 6.2 5.3 11.6 9.8 17.3l2.8 3.5-3.5 4.9c-2.4 3.2-4.1 4.6-5.2 4.2-.9-.2-4.6-1.6-8.3-3-3.7-1.4-9.6-2.8-13.2-3.2l-6.4-.7-2.5 3.9c-3.7 5.9-4.1 8.1-2.1 11.2 2.9 4.4 10.6 12.3 15.1 15.3l4.2 2.9-2 4.8c-1.1 2.6-2.3 5-2.7 5.4-.4.4-3.8.3-7.7-.2-8.2-1-21.4.2-22.6 2.2-.5.7-1.4 3.7-2.1 6.7l-1.2 5.4 4 3.5c2.1 1.8 8 5.4 13 7.8l9.1 4.3-.8 4.8c-.4 2.6-.8 5.4-.8 6-.1.8-1.7 1.3-4.3 1.3-5.3 0-13.7 2.2-20 5.1L1 181.3V195l3.8 1.9c5.1 2.6 15 5.1 20.1 5.1 4.7 0 5.6 1.3 6.2 8.8l.4 4.3-6.6 2.8c-6.9 2.9-14.2 7.5-17.2 10.9-1.7 1.8-1.7 2.7-.8 7.4 1.9 8.7 1.1 8.3 18 8.3h14.9l2.2 5 2.1 5-2.8 2c-5.3 3.9-12.6 11-15.5 15.3l-2.9 4.2 2.2 4.5c3.7 7.5 4.6 7.9 13.1 6.5 4-.7 10.3-2.5 14-4l6.8-2.8 3.5 4.9 3.6 4.8-4 5.3c-4.8 6.4-9.1 14.7-9.7 19.1-.5 2.7 0 3.8 3.4 7.1 3.6 3.5 4.4 3.8 7.6 3.2 4.6-.9 13.9-5.8 19.3-10.2l4.3-3.6 4.3 3.3c2.3 1.8 4.5 3.5 5 3.9.4.4-.4 3.2-1.9 6.4-1.4 3.1-3.2 9.5-4.1 14.2-1.4 8.5-1.4 8.5.9 10.4 1.3 1 4 2.6 6 3.6 3.7 1.7 3.8 1.7 7.8-1 4.9-3.2 11.4-9.7 14.7-14.8l2.5-3.7 5.1 2c2.9 1.2 5.3 2.2 5.5 2.4.2.2-.1 3.6-.7 7.7-1.2 8.8.1 20.7 2.5 22.5.9.6 3.9 1.7 6.7 2.4l5.1 1.2 3.4-3.9c3.4-3.9 11.2-18.7 11.2-21.2 0-1 1.1-1.2 4.8-.7 8 1.1 7.7.8 9.4 10.5.9 4.9 2.8 11.4 4.2 14.5l2.5 5.5h6.5c5.6 0 6.7-.3 8.1-2.3 2.2-3.1 5.5-14.1 6.2-21 .6-6.3.8-6.4 8.6-6.9l3.8-.3 2.9 7c3 7 9 15.9 12.1 17.8 1.2.7 3.3.5 7.5-.9 5.8-1.9 5.9-2 6.7-6.4.5-2.5.6-9.3.3-15.1l-.5-10.7 4.9-2.1c2.7-1.2 5.1-2.1 5.3-2.1.2 0 2.5 2.7 5.2 6 5.2 6.8 14.1 14 17.1 14 1.1 0 4.1-1.3 6.7-3 3.4-2.1 4.7-3.6 4.7-5.2-.1-4.5-3-16.1-5.4-21.4l-2.5-5.4 4.3-3.5c2.4-1.9 4.6-3.5 5-3.5.4 0 2.9 1.8 5.6 3.9 5.1 4.1 13.4 8.4 18.4 9.7 2.4.6 3.4 0 7.2-3.7 2.4-2.4 4.4-5 4.4-5.9 0-2.6-5.9-14.2-10.1-19.7-2.1-2.9-3.9-5.5-3.9-5.9 0-.4 1.6-2.6 3.5-4.9l3.5-4.3 7.7 3c5.9 2.3 9.6 3.1 15.1 3.2l7.3.1 2.6-4.6c2-3.4 2.4-5.2 1.9-7.3-.7-2.8-12.9-15.9-17.4-18.7l-2.4-1.4 2-5 2-5 8.4.3c8.9.4 19.6-.4 21.5-1.6.7-.4 1.9-3.4 2.8-6.7l1.6-6-4.2-3.8c-3.6-3.2-14.7-9.3-20.2-11.1-1.6-.5-1.7-1.3-1.2-5.3 1-7.1.9-7 7.2-7.7 7-.8 13.6-2.7 19.2-5.5l4.1-2.1v-13l-4.1-2c-4.7-2.4-17.9-6-22.1-6-3.2 0-3.4-.4-4.3-7.3l-.6-4.7 3.8-1.5c6.9-2.7 14.2-6.8 18.3-10.5l4.1-3.5-1.1-5.1c-1.9-9-1.8-8.9-18.4-8.9h-14.5l-2.1-5-2.1-5 2.8-2c4.8-3.4 13-11.4 15.8-15.5l2.7-3.9-2.9-5.3-2.8-5.3-7.5.1c-5.9 0-9.2.7-15.2 3.1l-7.8 3.1-3.6-4.9-3.6-4.9 3-3.5c3.9-4.4 7.9-11.2 10.3-17.5l1.9-5-4.1-4.5c-2.4-2.6-5-4.5-6.3-4.5-3.1 0-14.3 5.6-20.4 10.1l-5.3 4-4.5-3.6c-2.4-2-4.4-4.1-4.4-4.6s.8-2.6 1.9-4.7c2.3-4.7 5.1-15.7 5.1-20.5 0-3.4-.4-3.9-5.2-6.7-2.9-1.6-5.8-3-6.3-3-3 0-16.7 13.2-20.3 19.6-.7 1.2-1.7 1.1-6.6-1.1l-5.8-2.5.8-6.8c1-7.8 1-9.7 0-17.5-.8-6.4-1.8-7.2-10.2-8.4-3.8-.5-4.5-.3-7.3 2.8-3.2 3.5-11.1 18.1-11.1 20.5 0 1.5-3.1 1.8-9.1.8l-3.6-.6-1.2-8.1c-.7-4.9-2.3-10.7-4.2-14.9L194.7 0H182l-2 4.1zm27.3 36c10.5 1.6 25.6 5.4 33.4 8.5 16.6 6.5 40.2 20.9 42.5 25.9 1 2.2.5 3.1-4.8 9.2-9 10.3-13 14.3-14.1 14.3-.6 0-4.8-2.5-9.3-5.6-35-23.9-77.3-27.5-116.5-10-3.2 1.5-10.3 5.6-15.6 9.1-5.4 3.6-10.2 6.5-10.8 6.5C110.5 98 93 78 93 76.1c0-5.3 25.7-21.5 44.3-28 18.7-6.5 31.4-8.8 50-9 7.1 0 16.1.4 20 1zm-34.4 44.3c.9 1.1.9 4.7.2 14.8-.6 7.3-1.6 21.2-2.2 30.8-1.2 18.7-2.1 22-6.3 22-2.6 0-57.7-26.5-58.8-28.3-1.4-2.2-.8-3 7-10.4 13.1-12.6 27-21 44.6-26.8 11.3-3.8 13.8-4.1 15.5-2.1zm45 1.2c10.4 3.2 23.3 9.6 32.6 16.2 9.2 6.5 20.5 17.7 20.5 20.2 0 1.5-2.6 3.2-11.2 7.4-40.4 19.4-47.1 22.6-48.2 22.6-3.4 0-4.5-3.5-5.5-17.5-2.2-28.9-3.3-48.5-2.7-50 .8-2.2 4.8-1.9 14.5 1.1zM93.3 95.9c5.3 5.4 9.7 10.5 9.7 11.4 0 .9-1.9 3.7-4.2 6.4-5.4 6.2-14.2 19.7-16.9 25.9-7.9 18.2-10.4 32.1-9.4 52.3.4 8.1.8 17.1.8 20.1l.2 5.5-9.5 3.2c-11.9 3.9-17.6 4.9-19.4 3.4-5-4.1-6.7-44.9-2.7-64.1 4.3-20.5 11.5-38 22.2-54 7.1-10.6 15.5-20 17.8-20 .9 0 6.1 4.4 11.4 9.9zm208.8-4.2c11 12 22 31.4 27.8 48.8 5.4 16.3 7.4 29.1 7.4 47.5 0 16.6-2.1 32.8-4.6 35.9-1.5 1.8-5.7 1.1-18.5-2.8-7.6-2.4-10.5-3.7-11-5.2-.4-1.1-.2-5.7.5-10.2 5-33.3-3.1-63.8-23.8-89.6-3.2-4.1-5.9-8.1-5.9-8.9 0-2.1 19-21.2 21.1-21.2.9 0 4.1 2.6 7 5.7zm-200.5 64c5.5 3.8 17.5 11.9 26.6 18.1 9.2 6.3 17 12.3 17.3 13.4.4 1.2 0 2.7-1.2 4-3.1 3.5-51.1 35.8-53.1 35.8-2.9 0-3.8-1.6-6.2-12-2.8-11.6-3.7-31.3-2.1-42 2.4-15.2 5.3-24 8.1-24 .4 0 5.2 3 10.6 6.7zm187.2-4c3.4 9 6.2 25.2 6.2 36.3 0 16.2-5.2 39-8.9 39-1.8 0-48.6-31.2-52.8-35.2-4.6-4.3-3.1-6.2 14.2-17.8 6.1-4.1 16.8-11.4 23.9-16.2 7.2-4.9 13.7-8.8 14.7-8.8.9 0 2.1 1.2 2.7 2.7zm-85.4 2.6c23.9 11 29.4 42 10.8 60.6-14.7 14.7-38.1 14.4-52.3-.6-5.9-6.2-7.4-8.7-9.5-15.9-4.2-14.7 1.8-31.9 14.2-40.5 10.7-7.4 25.4-8.8 36.8-3.6zm38.9 83.7c24.9 12.1 28.7 14.3 28.7 16.2 0 1.5-2.3 4.5-6.7 8.7-13.4 12.6-30.1 22.5-46.4 27.5-9.7 3-13.7 3.3-14.6 1.1-.5-1.5.2-15 2.8-48.5 1.1-15 2.3-19 5.8-19 1 0 14.7 6.3 30.4 14zM169 226.6c.8.9 1.7 6.1 2.1 12.4.5 6 1.5 20.2 2.4 31.6 1.6 21.6 1.4 23.4-2.6 23.4-3.1 0-22.2-6.6-29-10-9-4.6-17.2-10.2-25.7-17.8-9.3-8.2-10.9-10.6-9.1-12.9 2-2.3 54.9-28.1 58-28.2 1.5-.1 3.2.6 3.9 1.5zm-91.7 3c.9.3 3.8 5.2 6.6 10.9 21 42.9 66.9 68.7 114.6 64.4 28.5-2.6 52.7-14.1 72.7-34.5 9.4-9.5 14.8-17.1 21.3-29.6 3.1-5.9 6-11 6.6-11.3.9-.6 10.8 2.3 22.7 6.7 4.5 1.7 5.2 2.3 5.2 4.7 0 1.5-2 6.9-4.5 11.9-21.1 43.4-61.3 74-108.7 82.8-14 2.7-40 2.4-53.8-.5-46.5-9.8-83.5-38-104.7-80-6.4-12.6-7.3-15.4-5-16.8 1.2-.8 23.6-9.1 24.9-9.2.3-.1 1.3.2 2.1.5z"/><path d="M171.6 44.1c-6.7 1-7.1 1.2-6.2 3.4.4 1.2 1.4 1.4 4 1l3.4-.7.6 5.4c1.8 14.3 1.7 13.8 4.2 13.8 2.3 0 2.4-.2 1.9-5.8-.3-3.1-.8-7.3-1-9.3-.5-4 .5-4.9 5.2-4.9 1.8 0 2.4-.5 2.1-1.8-.4-2-5.3-2.5-14.2-1.1zM193.4 54.7c-3 6.3-5.4 11.6-5.4 11.7 0 1 4.5-.4 5.5-1.7.8-1.2 2.7-1.7 5.9-1.7 4 0 4.8.3 5.6 2.5.7 1.8 1.7 2.5 3.5 2.5 1.5 0 2.3-.4 2-1-.3-.5-1.5-4.4-2.6-8.7-3.4-13.2-3.8-14-6.6-14.6-2.4-.4-2.8.2-7.9 11zm9.4.5l1 3.8h-3.4c-3.9 0-4.1-.6-1.7-5.5 1.9-4 2.7-3.6 4.1 1.7zM220.5 52.7c-.9 3.2-2.4 8.2-3.2 11-1.8 5.7-1.8 5.7 1.4 6.7 1.9.6 2.3.2 3.3-3.3 1.7-6.3 5.3-5.3 6.3 1.7.6 4.9.5 4.7 3.3 5.6 2 .6 2.1.4 1.4-4.1-.7-4.3-.5-5 1.6-7 2.7-2.5 3.4-9.3 1-11.2-1-.9-12-5.1-13.2-5.1-.1 0-1 2.6-1.9 5.7zm10 1.5c2.6 1.2 3 2.4 1.6 4.7-.6 1-1.9 1.2-4.5.7-4.1-.8-3.9-.6-2.6-4 1.1-2.9 1.8-3.1 5.5-1.4zM148.3 49c-4 .9-6 2.4-7.9 6.1-4.2 8.3 3.1 18.1 12.4 16.5 6.7-1 10.9-8.2 9-15.2-1.4-5.6-7.2-8.7-13.5-7.4zm8.2 6c2.8 3.1 2.4 7.9-.9 10.7-3.4 2.9-5.8 2.9-9.2 0C140.9 61 143.8 53 151 53c2.4 0 4.3.7 5.5 2zM245.1 55.7c0 .5.6 3.7 1.3 7.3 1.2 6.2 1.2 6.7-1.1 11.2-2.8 5.7-2.8 5.5-.3 6.8 1.7.9 2.2.5 4.5-4s3.3-5.5 9-8c3.6-1.6 6.5-3.1 6.5-3.4 0-.3-.9-1-2-1.6-1.5-.8-2.9-.6-6 1-4.9 2.5-6 2-6-2.6 0-2.1-.8-4.2-2-5.4-2-2-4.1-2.7-3.9-1.3zM117.8 61.5c-2.6 1.4-4.9 2.9-5.3 3.4-.4.8 7.7 16.7 10.2 20 .2.2 1.4-.2 2.8-.9l2.5-1.3-2-3.2c-2.4-4-2.5-4.2-.2-5.4 1.4-.8 2.7-.4 5.4 1.5 2.5 1.8 4.3 2.4 5.7 1.9 2.9-.9 2.6-1.6-1.4-4.4-2.9-1.9-3.5-3-3.5-5.8 0-4-3.7-8.3-7.2-8.3-1.3.1-4.4 1.2-7 2.5zm8 2.7c2 2 1.4 4.8-1.4 6-2.3 1.1-2.9 1-4.5-1.1-2-2.4-2-2.4.8-4.2 3.4-2.2 3.6-2.2 5.1-.7zM179 155.9c-8.9 2.7-16.3 9-20.7 17.4-2.5 4.7-2.8 6.2-2.8 15.2 0 8.9.3 10.6 2.7 15 3.2 6.2 10.3 12.9 16.6 15.8 3.6 1.7 6.6 2.2 13.2 2.2 7.7 0 9.2-.3 15.2-3.3 11.9-5.9 18-15.9 18.1-29.9.1-7.4-.2-8.8-3.3-14.9-4.2-8.2-11.5-14.6-19.2-16.9-5.4-1.6-15.5-1.9-19.8-.6zm15 7.9c0 2.4.7 3.2 4.1 4.7 7.3 3.3 12.9 12.1 12.9 20.1 0 8.3-5.8 17-13.5 20.5-15.5 7.1-33.6-7.3-30.8-24.5.9-5.6 6-12.6 11-15.1 3.3-1.6 4.2-2.6 4.3-4.6 0-3.6.6-3.9 6.7-3.9 5.2 0 5.3.1 5.3 2.8zM71.3 253.6c-5.1 3-9.3 5.9-9.3 6.3 0 .5.7 1.4 1.5 2.1 1.2 1 3.1.2 10.5-4 9.9-5.8 10.3-6.1 9.4-8.4-.9-2.4-2.1-2-12.1 4zM313.4 253.8c-1.5 2.6-2.8 4.8-2.9 5-.2.2-4-1.7-8.5-4.3-6.4-3.5-8.6-4.3-9.6-3.4-.8.6-1.4 1.5-1.4 1.9 0 .6 19.4 12 20.4 12 .6 0 7.6-12.9 7.6-13.9 0-.5-.6-1.1-1.4-1.4-1-.4-2.4 1-4.2 4.1zM78.6 261.5c-10.5 7.1-11 7.6-9.3 9.8 1.1 1.7 1.6 1.5 6.2-1.8 2.8-1.9 5.3-3.5 5.7-3.5.4 0-.4 3.2-1.8 7.2-2.8 8.4-2.8 7.9-1 10.3 1.3 1.7 1.9 1.4 10.5-5.9 7.4-6.3 9-8.1 8-9.2-1.7-2.1-2.5-1.8-7.4 2.7-2.5 2.3-4.5 3.7-4.5 3.2s1.1-4.1 2.4-7.9c1.9-5.7 2.1-7.3 1.1-8.7-.7-.9-1.4-1.7-1.6-1.6-.2 0-4 2.4-8.3 5.4zM282.6 264.9c-1.7 1.9-1.5 2.4 4.7 12.5 6 9.8 6.5 10.4 8 8.8 1.1-1.2 1.3-2.2.5-3.5-.7-1.3-.5-2.4.6-4 3.6-5.2 4.5-5.9 6.4-5.3 1.1.4 2.5-.1 3.5-1.2 1.6-1.7 1.1-2-9.6-5.5-6.2-2-11.5-3.7-11.8-3.7-.3 0-1.4.9-2.3 1.9zm10.3 5.2c3.6 1.3 3.8 2 1.2 4.3-1.8 1.6-2 1.6-4-1.2-3.2-4.6-2.8-5 2.8-3.1zM100 274.5c-1.1 1.3-.9 1.9.9 3.8 2.6 2.9 2.6 3.9 0 6.3-1.2 1-3.9 4-6 6.5-3.7 4.5-3.8 4.7-2 6.3 1.7 1.6 2.1 1.3 7.6-5.1 3.2-3.8 6.1-6.9 6.6-7.1.5-.2 2.1.6 3.6 1.8 2.4 1.9 2.8 1.9 3.6.4.6-1.1.5-2-.4-2.8-.8-.7-3.9-3.6-7-6.4-4.9-4.6-5.8-5-6.9-3.7zM272.3 275.8c-.9 1.4-.4 2.4 3 5.9 2.2 2.4 3.8 4.5 3.5 4.8-.3.4-3.9-.3-7.8-1.5-6.2-1.8-7.5-2-8.6-.8-1.2 1.2-.4 2.7 5.2 10.4 3.6 4.9 7 9.1 7.5 9.2.5.2 1.6-.1 2.4-.8 1.2-1 .8-2-2.5-6.4-2.2-2.9-4-5.5-4-5.8 0-.3 3.4.5 7.6 1.8 6.1 1.9 8 2.1 9.5 1.1 1-.6 1.9-1.6 1.9-2.2 0-.6-3.7-4.7-8.3-9.3-7.3-7.3-8.4-8-9.4-6.4zM114.4 297.7c-3.2 4.8-6.2 9.3-6.7 10-.5.7 1.8 2.7 6.8 5.7 7 4.3 7.5 4.4 8.5 2.6.9-1.6.3-2.2-4-4.6-5.3-2.9-5.8-3.8-3.5-6.8 1.3-1.8 1.5-1.8 5 .4 3.1 1.9 3.9 2 4.6.9 1.3-2.1 1.2-2.2-2.6-4.4-3.3-1.9-3.5-2.2-2.1-4 1.5-2 1.6-2 6.4.7 4.6 2.5 4.9 2.5 6 .8 1-1.6.6-2.2-3.1-4.2-2.3-1.3-5.4-3.2-6.8-4.1l-2.6-1.7-5.9 8.7zM245.4 295.9c-6.3 3.9-6.7 12.9-.8 18.1 4.8 4.2 10 4.1 14.8-.1 11-9.6-1.5-25.6-14-18zm11.8 3.8c3.9 4.4 2.7 10.3-2.4 12.4-7.8 3.2-14.3-7.8-7.5-12.6 2.9-2 8.1-1.9 9.9.2zM138.1 302.2c-.5 1.3-2.5 6.1-4.5 10.7s-3.5 8.5-3.4 8.6c.2.1 1.2.5 2.4.9 1.8.5 2.4 0 3.8-3.9 1.9-5 1.9-4.9 4.7-3.5 1.5.8 1.9 2.1 1.9 6s.4 5.2 1.9 6c3.1 1.6 3.3 1.3 2.9-3.9-.3-4.3 0-5.2 2.5-7.5 2.3-2.1 2.8-3.3 2.5-6.4-.3-3.3-.8-3.9-4.8-5.8-7.7-3.7-8.9-3.8-9.9-1.2zm10.6 6.4c.3.8 0 2.1-.6 2.8-1 1.2-1.9 1.2-4.4.4-4.1-1.4-3.9-1.1-2.8-4.1.9-2.4 1.3-2.5 4.1-1.5 1.8.6 3.4 1.7 3.7 2.4zM228.8 302.7c-1 .2-1.8.8-1.8 1.1 0 .4 1.7 5.5 3.7 11.4 3.4 9.6 4 10.7 5.8 10.2 1.1-.4 2.1-.8 2.3-.9.5-.5-7.2-22.5-7.8-22.4-.3.1-1.3.3-2.2.6zM209.7 307.8c-6 1.2-7.7 1.9-7.5 3.1.2 1.1 1.4 1.6 3.8 1.6 1.9 0 3.8.4 4.1 1 .4.5 1.2 4.7 2 9.2 1.2 7.6 1.4 8.3 3.6 8.3 2.8 0 2.9-1.7.8-10.5-2.1-8.8-2-9.3 2.1-10.1 2.5-.5 3.4-1.1 3.2-2.3-.4-2.1-2.8-2.2-12.1-.3zM160.1 310.7c-4 15.2-4.5 18.4-3 19.4 2.4 1.5 3.4.4 4.5-5.5.7-3.1 1.4-6 1.8-6.3.5-.5 4.6 8 6.1 12.6.4 1.5 1.5 2.1 3.4 2.1 2.8 0 2.8-.1 3.5-7.3.3-3.9.9-9.3 1.2-12 .6-4.3.5-4.7-1.4-4.7-2.4 0-3.2 1.8-3.2 7.4 0 2.4-.3 4.6-.7 5-.4.4-2.3-2.6-4.3-6.6-4.1-8.6-6.4-9.8-7.9-4.1zM188.5 311.2c-.3.7-2 5.9-3.9 11.5l-3.5 10.3h2.4c1.5 0 2.6-.7 3-2 .5-1.6 1.5-2 5.5-2 3.9 0 5.2.4 6 2 1.2 2.2 5 2.8 4.9.7 0-.6-2-5.7-4.3-11.2-3.7-8.8-4.5-10-6.9-10.3-1.6-.2-2.9.2-3.2 1zm4.4 7c2.5 6.6 2.4 6.8-.8 6.8-3.4 0-3.7-.8-1.9-5.7 1.4-3.9 1.6-4 2.7-1.1z"/></svg>